<svg width="210" height="42" viewBox="0 0 210 42" fill="none" xmlns="http://www.w3.org/2000/svg">
<path opacity="0.5" d="M40.0652 2.25671L30.2601 36.9917C30.2102 37.1494 30.0108 37.1967 29.8945 37.0863L23.3301 30.8583L28.2492 13.4514C28.2991 13.2937 28.1495 13.1518 27.9833 13.1991L9.63617 17.8662L3.10498 11.6697C2.98865 11.5593 3.03851 11.3701 3.20469 11.3228L39.7993 2.00444C39.9655 1.97291 40.115 2.11481 40.0652 2.25671Z" fill="#00B37E"/>
<path opacity="0.5" d="M23.3297 30.858L20.8037 39.8452C20.7538 40.0029 20.5544 40.0502 20.4381 39.9398L0.0634003 20.6251C-0.0529313 20.5147 -0.00307518 20.3255 0.163113 20.2782L9.63583 17.8658L23.3297 30.858Z" fill="#00B37E"/>
<path d="M28.2484 13.4511L23.3292 30.858L9.63533 17.8659L27.9825 13.1988C28.1487 13.1515 28.2982 13.2934 28.2484 13.4511Z" fill="#00B37E"/>
<path d="M61.675 11.3104V29.5H57.9397V11.3104H61.675ZM79.9895 11.3104V29.5H76.2417L68.9334 17.307V29.5H65.1855V11.3104H68.9334L76.2542 23.5159V11.3104H79.9895ZM87.6226 26.8765L90.6209 15.9828H94.3813L89.8214 29.5H87.5477L87.6226 26.8765ZM85.5613 15.9828L88.5721 26.889L88.6346 29.5H86.3484L81.7885 15.9828H85.5613ZM102.039 29.7499C100.99 29.7499 100.049 29.5833 99.216 29.2501C98.3831 28.9087 97.6752 28.4381 97.0922 27.8385C96.5175 27.2388 96.0761 26.5434 95.768 25.7521C95.4598 24.9526 95.3057 24.1031 95.3057 23.2036V22.7039C95.3057 21.6795 95.4515 20.7425 95.743 19.893C96.0345 19.0435 96.4509 18.3064 96.9923 17.6818C97.542 17.0571 98.2082 16.5782 98.9911 16.2451C99.774 15.9036 100.657 15.7329 101.64 15.7329C102.597 15.7329 103.447 15.8911 104.188 16.2076C104.929 16.5241 105.55 16.9739 106.05 17.5569C106.558 18.1398 106.941 18.8394 107.199 19.6556C107.457 20.4635 107.586 21.363 107.586 22.3541V23.8532H96.8424V21.4546H104.051V21.1798C104.051 20.6801 103.959 20.2345 103.776 19.843C103.601 19.4433 103.334 19.1268 102.976 18.8936C102.618 18.6604 102.16 18.5438 101.602 18.5438C101.127 18.5438 100.719 18.6479 100.378 18.8561C100.036 19.0643 99.7574 19.3558 99.5408 19.7306C99.3326 20.1054 99.1744 20.5468 99.0661 21.0548C98.9661 21.5546 98.9162 22.1042 98.9162 22.7039V23.2036C98.9162 23.745 98.9911 24.2447 99.141 24.7028C99.2993 25.1608 99.52 25.5564 99.8032 25.8896C100.095 26.2227 100.444 26.4809 100.853 26.6641C101.269 26.8474 101.74 26.939 102.264 26.939C102.914 26.939 103.518 26.814 104.076 26.5642C104.642 26.306 105.129 25.9187 105.537 25.4024L107.286 27.3013C107.003 27.7094 106.616 28.1008 106.125 28.4756C105.641 28.8504 105.058 29.1585 104.376 29.4001C103.693 29.6333 102.914 29.7499 102.039 29.7499ZM116.943 25.7646C116.943 25.5065 116.868 25.2733 116.718 25.065C116.569 24.8568 116.29 24.6653 115.881 24.4904C115.482 24.3071 114.903 24.1406 114.145 23.9907C113.462 23.8407 112.825 23.6534 112.234 23.4285C111.651 23.1953 111.142 22.9163 110.709 22.5915C110.285 22.2666 109.952 21.8835 109.71 21.4421C109.468 20.9924 109.348 20.4802 109.348 19.9055C109.348 19.3392 109.468 18.8061 109.71 18.3064C109.96 17.8067 110.314 17.3653 110.772 16.9822C111.238 16.5907 111.805 16.2867 112.471 16.0702C113.146 15.8453 113.903 15.7329 114.745 15.7329C115.919 15.7329 116.927 15.9203 117.768 16.2951C118.617 16.6699 119.267 17.1862 119.717 17.8442C120.175 18.4938 120.404 19.2351 120.404 20.0679H116.806C116.806 19.7181 116.731 19.4058 116.581 19.1309C116.439 18.8478 116.215 18.6271 115.906 18.4688C115.607 18.3023 115.215 18.219 114.732 18.219C114.332 18.219 113.987 18.2898 113.695 18.4313C113.404 18.5646 113.179 18.7478 113.021 18.981C112.871 19.2059 112.796 19.4558 112.796 19.7306C112.796 19.9388 112.837 20.1262 112.921 20.2928C113.012 20.451 113.158 20.5968 113.358 20.73C113.558 20.8633 113.816 20.9882 114.132 21.1048C114.457 21.2131 114.857 21.313 115.332 21.4046C116.306 21.6045 117.177 21.8669 117.943 22.1917C118.709 22.5082 119.317 22.9413 119.767 23.4909C120.216 24.0323 120.441 24.7444 120.441 25.6272C120.441 26.2269 120.308 26.7766 120.042 27.2763C119.775 27.776 119.392 28.2132 118.892 28.588C118.392 28.9545 117.793 29.2418 117.093 29.45C116.402 29.6499 115.623 29.7499 114.757 29.7499C113.499 29.7499 112.433 29.525 111.559 29.0752C110.693 28.6255 110.035 28.055 109.585 27.3637C109.144 26.6641 108.923 25.9479 108.923 25.215H112.333C112.35 25.7063 112.475 26.1019 112.708 26.4018C112.95 26.7016 113.254 26.9181 113.62 27.0514C113.995 27.1847 114.399 27.2513 114.832 27.2513C115.298 27.2513 115.686 27.1888 115.994 27.0639C116.302 26.9306 116.535 26.7557 116.693 26.5392C116.86 26.3143 116.943 26.0561 116.943 25.7646ZM129.399 15.9828V18.5313H121.528V15.9828H129.399ZM123.477 12.6472H127.075V25.4273C127.075 25.8188 127.125 26.1186 127.225 26.3268C127.333 26.535 127.491 26.6808 127.7 26.7641C127.908 26.839 128.17 26.8765 128.487 26.8765C128.712 26.8765 128.911 26.8682 129.086 26.8515C129.27 26.8265 129.424 26.8015 129.549 26.7766L129.561 29.425C129.253 29.525 128.92 29.6041 128.562 29.6624C128.204 29.7207 127.808 29.7499 127.375 29.7499C126.584 29.7499 125.892 29.6208 125.301 29.3626C124.718 29.0961 124.268 28.6713 123.952 28.0883C123.635 27.5053 123.477 26.7391 123.477 25.7896V12.6472ZM135.245 15.9828V29.5H131.635V15.9828H135.245ZM131.41 12.4598C131.41 11.9351 131.593 11.502 131.96 11.1605C132.326 10.819 132.818 10.6483 133.434 10.6483C134.042 10.6483 134.529 10.819 134.896 11.1605C135.27 11.502 135.458 11.9351 135.458 12.4598C135.458 12.9845 135.27 13.4176 134.896 13.759C134.529 14.1005 134.042 14.2712 133.434 14.2712C132.818 14.2712 132.326 14.1005 131.96 13.759C131.593 13.4176 131.41 12.9845 131.41 12.4598ZM141.817 18.7811V29.5H138.206V15.9828H141.592L141.817 18.7811ZM141.317 22.2666H140.317C140.317 21.3255 140.43 20.4594 140.655 19.6681C140.888 18.8686 141.225 18.1773 141.667 17.5943C142.116 17.003 142.67 16.5449 143.328 16.2201C143.986 15.8953 144.748 15.7329 145.614 15.7329C146.214 15.7329 146.764 15.8245 147.263 16.0077C147.763 16.1826 148.192 16.4616 148.55 16.8448C148.917 17.2195 149.2 17.7109 149.4 18.3189C149.6 18.9186 149.7 19.639 149.7 20.4802V29.5H146.102V20.8799C146.102 20.2636 146.018 19.7889 145.852 19.4558C145.685 19.1226 145.448 18.8894 145.14 18.7562C144.84 18.6229 144.478 18.5563 144.053 18.5563C143.586 18.5563 143.178 18.6521 142.828 18.8436C142.487 19.0352 142.204 19.3017 141.979 19.6432C141.754 19.9763 141.588 20.3677 141.479 20.8175C141.371 21.2672 141.317 21.7503 141.317 22.2666ZM149.362 21.8544L148.075 22.0168C148.075 21.134 148.184 20.3136 148.4 19.5557C148.625 18.7978 148.954 18.1315 149.387 17.5569C149.829 16.9822 150.374 16.5366 151.024 16.2201C151.673 15.8953 152.423 15.7329 153.272 15.7329C153.922 15.7329 154.513 15.8287 155.046 16.0202C155.58 16.2035 156.033 16.4991 156.408 16.9072C156.791 17.307 157.083 17.8317 157.283 18.4813C157.491 19.1309 157.595 19.9263 157.595 20.8675V29.5H153.985V20.8675C153.985 20.2428 153.901 19.7681 153.735 19.4433C153.576 19.1101 153.343 18.8811 153.035 18.7562C152.735 18.6229 152.377 18.5563 151.961 18.5563C151.528 18.5563 151.149 18.6437 150.824 18.8186C150.499 18.9852 150.228 19.2184 150.012 19.5182C149.795 19.8181 149.633 20.1679 149.525 20.5676C149.416 20.9591 149.362 21.388 149.362 21.8544ZM166.602 29.7499C165.553 29.7499 164.612 29.5833 163.779 29.2501C162.946 28.9087 162.238 28.4381 161.655 27.8385C161.081 27.2388 160.639 26.5434 160.331 25.7521C160.023 24.9526 159.869 24.1031 159.869 23.2036V22.7039C159.869 21.6795 160.014 20.7425 160.306 19.893C160.597 19.0435 161.014 18.3064 161.555 17.6818C162.105 17.0571 162.771 16.5782 163.554 16.2451C164.337 15.9036 165.22 15.7329 166.203 15.7329C167.16 15.7329 168.01 15.8911 168.751 16.2076C169.492 16.5241 170.113 16.9739 170.613 17.5569C171.121 18.1398 171.504 18.8394 171.762 19.6556C172.02 20.4635 172.149 21.363 172.149 22.3541V23.8532H161.405V21.4546H168.614V21.1798C168.614 20.6801 168.522 20.2345 168.339 19.843C168.164 19.4433 167.897 19.1268 167.539 18.8936C167.181 18.6604 166.723 18.5438 166.165 18.5438C165.69 18.5438 165.282 18.6479 164.941 18.8561C164.599 19.0643 164.32 19.3558 164.104 19.7306C163.896 20.1054 163.737 20.5468 163.629 21.0548C163.529 21.5546 163.479 22.1042 163.479 22.7039V23.2036C163.479 23.745 163.554 24.2447 163.704 24.7028C163.862 25.1608 164.083 25.5564 164.366 25.8896C164.658 26.2227 165.007 26.4809 165.416 26.6641C165.832 26.8474 166.303 26.939 166.827 26.939C167.477 26.939 168.081 26.814 168.639 26.5642C169.205 26.306 169.692 25.9187 170.1 25.4024L171.849 27.3013C171.566 27.7094 171.179 28.1008 170.688 28.4756C170.204 28.8504 169.621 29.1585 168.939 29.4001C168.256 29.6333 167.477 29.7499 166.602 29.7499ZM177.721 18.8686V29.5H174.123V15.9828H177.496L177.721 18.8686ZM177.196 22.2666H176.222C176.222 21.2672 176.351 20.3677 176.609 19.5682C176.867 18.7603 177.23 18.0732 177.696 17.5069C178.162 16.9322 178.716 16.495 179.358 16.1951C180.007 15.887 180.732 15.7329 181.531 15.7329C182.164 15.7329 182.743 15.8245 183.268 16.0077C183.792 16.191 184.242 16.4825 184.617 16.8822C185 17.282 185.292 17.8109 185.492 18.4688C185.7 19.1268 185.804 19.9305 185.804 20.8799V29.5H182.181V20.8675C182.181 20.2678 182.098 19.8014 181.931 19.4683C181.764 19.1351 181.519 18.9019 181.194 18.7687C180.877 18.6271 180.486 18.5563 180.02 18.5563C179.537 18.5563 179.116 18.6521 178.758 18.8436C178.408 19.0352 178.117 19.3017 177.883 19.6432C177.659 19.9763 177.488 20.3677 177.371 20.8175C177.255 21.2672 177.196 21.7503 177.196 22.2666ZM195.161 15.9828V18.5313H187.29V15.9828H195.161ZM189.239 12.6472H192.837V25.4273C192.837 25.8188 192.887 26.1186 192.987 26.3268C193.095 26.535 193.254 26.6808 193.462 26.7641C193.67 26.839 193.933 26.8765 194.249 26.8765C194.474 26.8765 194.674 26.8682 194.849 26.8515C195.032 26.8265 195.186 26.8015 195.311 26.7766L195.323 29.425C195.015 29.525 194.682 29.6041 194.324 29.6624C193.966 29.7207 193.57 29.7499 193.137 29.7499C192.346 29.7499 191.655 29.6208 191.063 29.3626C190.48 29.0961 190.031 28.6713 189.714 28.0883C189.398 27.5053 189.239 26.7391 189.239 25.7896V12.6472ZM204.518 25.7646C204.518 25.5065 204.443 25.2733 204.293 25.065C204.143 24.8568 203.864 24.6653 203.456 24.4904C203.056 24.3071 202.478 24.1406 201.72 23.9907C201.037 23.8407 200.4 23.6534 199.808 23.4285C199.225 23.1953 198.717 22.9163 198.284 22.5915C197.859 22.2666 197.526 21.8835 197.285 21.4421C197.043 20.9924 196.922 20.4802 196.922 19.9055C196.922 19.3392 197.043 18.8061 197.285 18.3064C197.535 17.8067 197.889 17.3653 198.347 16.9822C198.813 16.5907 199.379 16.2867 200.046 16.0702C200.72 15.8453 201.478 15.7329 202.319 15.7329C203.494 15.7329 204.501 15.9203 205.343 16.2951C206.192 16.6699 206.842 17.1862 207.292 17.8442C207.75 18.4938 207.979 19.2351 207.979 20.0679H204.381C204.381 19.7181 204.306 19.4058 204.156 19.1309C204.014 18.8478 203.789 18.6271 203.481 18.4688C203.181 18.3023 202.79 18.219 202.307 18.219C201.907 18.219 201.561 18.2898 201.27 18.4313C200.978 18.5646 200.754 18.7478 200.595 18.981C200.445 19.2059 200.37 19.4558 200.37 19.7306C200.37 19.9388 200.412 20.1262 200.495 20.2928C200.587 20.451 200.733 20.5968 200.933 20.73C201.133 20.8633 201.391 20.9882 201.707 21.1048C202.032 21.2131 202.432 21.313 202.907 21.4046C203.881 21.6045 204.751 21.8669 205.518 22.1917C206.284 22.5082 206.892 22.9413 207.341 23.4909C207.791 24.0323 208.016 24.7444 208.016 25.6272C208.016 26.2269 207.883 26.7766 207.616 27.2763C207.35 27.776 206.967 28.2132 206.467 28.588C205.967 28.9545 205.368 29.2418 204.668 29.45C203.977 29.6499 203.198 29.7499 202.332 29.7499C201.074 29.7499 200.008 29.525 199.134 29.0752C198.268 28.6255 197.61 28.055 197.16 27.3637C196.718 26.6641 196.498 25.9479 196.498 25.215H199.908C199.925 25.7063 200.05 26.1019 200.283 26.4018C200.525 26.7016 200.829 26.9181 201.195 27.0514C201.57 27.1847 201.974 27.2513 202.407 27.2513C202.873 27.2513 203.26 27.1888 203.569 27.0639C203.877 26.9306 204.11 26.7557 204.268 26.5392C204.435 26.3143 204.518 26.0561 204.518 25.7646Z" fill="#E1E1E6"/>
</svg>
